<?xml version="1.0" encoding="UTF-8" standalone="no"?>
<!-- Created with Inkscape (http://www.inkscape.org/) -->

<svg
   version="1.1"
   id="svg1"
   width="1370"
   height="495"
   viewBox="0 0 1370 495"
   sodipodi:docname="elmorlabs.svg"
   inkscape:version="1.4.2 (ebf0e940d0, 2025-05-08)"
   xmlns:inkscape="http://www.inkscape.org/namespaces/inkscape"
   xmlns:sodipodi="http://sodipodi.sourceforge.net/DTD/sodipodi-0.dtd"
   xmlns="http://www.w3.org/2000/svg"
   xmlns:svg="http://www.w3.org/2000/svg">
  <defs
     id="defs1">
    <inkscape:path-effect
       effect="fillet_chamfer"
       id="path-effect1"
       is_visible="true"
       lpeversion="1"
       nodesatellites_param="F,0,0,1,0,0,0,1 @ F,0,0,1,0,0,0,1 @ F,0,0,1,0,0,0,1 @ F,0,0,1,0,0,0,1 @ F,0,0,1,0,0,0,1 @ F,0,0,1,0,0,0,1 @ F,0,0,1,0,0,0,1 @ F,0,0,1,0,0,0,1"
       radius="0"
       unit="px"
       method="auto"
       mode="F"
       chamfer_steps="1"
       flexible="false"
       use_knot_distance="true"
       apply_no_radius="true"
       apply_with_radius="true"
       only_selected="false"
       hide_knots="false" />
  </defs>
  <sodipodi:namedview
     id="namedview1"
     pagecolor="#505050"
     bordercolor="#eeeeee"
     borderopacity="1"
     inkscape:showpageshadow="0"
     inkscape:pageopacity="0"
     inkscape:pagecheckerboard="0"
     inkscape:deskcolor="#d1d1d1"
     showgrid="false"
     inkscape:zoom="0.64658322"
     inkscape:cx="682.82007"
     inkscape:cy="118.31424"
     inkscape:window-width="1446"
     inkscape:window-height="985"
     inkscape:window-x="0"
     inkscape:window-y="0"
     inkscape:window-maximized="1"
     inkscape:current-layer="svg1" />
  <g
     inkscape:groupmode="layer"
     id="layer3"
     inkscape:label="Text">
    <path
       style="fill:#000000;stroke-width:1.15276"
       d="m 1279.5033,215.08606 14.3225,-13.11635 c 0,0 -7.519,-7.53474 -14.2029,-9.8698 -9.4833,-3.31305 -11.2462,-3.53773 -19.5791,-3.28993 -9.021,0.26827 -13.2819,0.16048 -23.0295,5.61696 -10.3345,5.78505 -11.9561,14.84765 -12.0363,21.82588 -0.066,5.77761 0.2917,13.13066 8.1198,19.16329 7.828,6.03263 24.2456,8.79043 24.2456,8.79043 0,0 10.0163,2.41952 12.3863,5.86674 2.3699,3.44722 1.7443,10.40396 0.1384,11.69966 -4.7073,3.79798 -8.5815,3.90948 -13.465,4.12493 -4.8836,0.21545 -12.1619,-1.96912 -15.6875,-4.51797 -2.9245,-2.11433 -6.756,-6.07048 -6.756,-6.07048 l -14.4693,13.68297 c 0,0 5.6358,6.12122 15.5466,10.21479 9.9107,4.09357 13.5734,3.60814 21.0423,3.75178 7.469,0.14363 23.1969,-0.64635 29.8759,-8.40259 6.679,-7.75624 6.8563,-14.99703 7.0731,-21.06606 0.2167,-6.06903 -2.8235,-13.67163 -6.5026,-16.68983 -3.6146,-2.96532 -8.1489,-7.11191 -27.9609,-11.37943 -8.0859,-1.74171 -13.2218,-5.3104 -13.4386,-9.42867 -0.2167,-4.11827 3.2514,-10.83755 14.5224,-10.94592 11.2711,-0.10838 19.8548,10.0396 19.8548,10.0396 z"
       id="path15"
       sodipodi:nodetypes="ccssssscssssccssssssssc"
       inkscape:label="S" />
    <path
       id="path14"
       style="display:inline;fill:#000000;stroke-width:1.15276"
       d="m 1102.0156,139.99609 -0.012,141.01172 H 1122 l 0.07,-14.17187 c 0,0 4.9337,8.12253 12.9707,11.99218 8.037,3.86965 10.6797,4.14258 19.5313,4.14258 8.8516,0 21.6385,-2.1706 30.8711,-12.83593 9.2327,-10.66534 12.5566,-23.89289 12.5566,-35.99024 0,-12.09734 -5.7825,-24.20421 -11.9062,-31.44141 -6.1239,-7.23717 -19.1083,-14.4265 -32.42,-13.73046 -13.3116,0.69603 -17.0729,3.70901 -20.414,5.83203 -3.8087,2.42011 -9.2285,8.22265 -9.2286,8.22265 l -0.033,-63.03125 z m 47.5567,66.51563 a 26.412064,29.464113 0 0 1 26.4121,29.46289 26.412064,29.464113 0 0 1 -26.4121,29.46484 26.412064,29.464113 0 0 1 -26.4121,-29.46484 26.412064,29.464113 0 0 1 26.4121,-29.46289 z"
       inkscape:label="B" />
    <path
       id="path13"
       style="display:inline;fill:#000000;stroke-width:1.15276"
       d="m 1024.5273,189.08398 c -13.9306,0.0974 -24.1771,4.49611 -29.16597,7.5586 -4.98891,3.0625 -8.86133,6.35937 -8.86133,6.35937 l 11.97266,13.14453 c 0,0 12.94114,-11.13606 23.64844,-10.13671 10.7074,0.99935 10.5704,0.5434 17.0469,6.01757 6.4765,5.47417 4.8379,12.9668 4.8379,12.9668 0,0 -27.7175,-0.0249 -36.4786,2.99609 -8.76108,3.02107 -14.63432,5.10544 -20.84566,11.68165 -2.45547,2.5997 -4.59891,8.01238 -4.83789,16.28124 -0.23898,8.26887 5.49805,16.1543 5.49805,16.1543 0,0 10.01421,11.12366 28.1602,10.93164 18.146,-0.19202 28.5273,-14.07617 28.5273,-14.07617 L 1044,281.01367 1064,281 l 0.027,-62.31641 c 0,0 -1.996,-14.30515 -10.666,-20.83203 -8.6701,-6.52689 -14.9035,-8.86499 -28.834,-8.76758 z m 3.1993,50.85743 16.2851,0.0547 c 0,0 0.024,4.09673 -0.2812,7.38868 -0.3048,3.29195 -1.4743,7.36336 -5.3828,12.60546 -3.9086,5.24209 -13.3354,6.86746 -17.1426,6.94336 -2.1613,0.0431 -8.9327,0.37063 -12.3164,-1.94921 -3.2891,-2.255 -4.8907,-4.80348 -4.8907,-9.96094 0,-6.43765 5.1147,-9.83632 8.4336,-11.67774 5.9101,-3.27909 15.295,-3.40429 15.295,-3.40429 z"
       sodipodi:nodetypes="ssccsscssscsccccssccssssssc"
       inkscape:label="A" />
    <path
       style="fill:#000000;stroke-width:1.15276"
       d="m 883,149 23.99219,0.004 0.0117,111 56,-0.004 v 21 L 883,280.99609 Z"
       id="path12"
       inkscape:label="L" />
    <path
       style="display:inline;fill:#000000;stroke-width:1.15276"
       d="m 804,190.99609 20.99219,0.008 0.0192,15.9786 c 0,0 6.26102,-14.53632 20.36576,-17.46883 3.63402,-0.75554 11.58691,-0.44718 11.58691,-0.44718 l 0.0321,19.93351 -13.99161,-0.009 c 0,0 -7.87128,2.71207 -11.76414,8.32237 -3.89286,5.6103 -5.03782,12.02207 -5.03782,12.02207 L 826,281 804,280.996 Z"
       id="path11"
       sodipodi:nodetypes="cccscccscccc"
       inkscape:label="R" />
    <path
       id="path10"
       style="fill:#000000;stroke-width:1.11813"
       d="M 723.13281 187.97852 A 49.136738 47.947376 0 0 0 673.99609 235.92578 A 49.136738 47.947376 0 0 0 723.13281 283.87305 A 49.136738 47.947376 0 0 0 772.26953 235.92578 A 49.136738 47.947376 0 0 0 723.13281 187.97852 z M 723.24023 206.2832 A 26.183931 29.535772 0 0 1 749.42383 235.81836 A 26.183931 29.535772 0 0 1 723.24023 265.35352 A 26.183931 29.535772 0 0 1 697.05664 235.81836 A 26.183931 29.535772 0 0 1 723.24023 206.2832 z "
       inkscape:label="O" />
    <path
       style="fill:#000000;stroke-width:1.15276"
       d="m 503.00391,192 h 21 l -0.0117,14 c 0,0 7.80237,-15.42114 23.14593,-16.97471 26.04854,-2.63747 33.18517,14.97403 33.39838,16.99128 0.21321,2.01725 6.27853,-18.14812 30.46203,-16.93083 24.1835,1.21729 30.91917,17.36668 32.05531,30.75687 C 644.18997,233.2328 643,280.99609 643,280.99609 H 621.00391 L 621,225.00391 c 0,0 -2.09207,-18.19098 -17.31718,-17.92152 -15.72539,0.27831 -19.6485,17.76874 -19.63076,20.07357 0.0128,1.66451 -0.056,53.84795 -0.056,53.84795 l -22,-0.004 -0.14868,-57.5764 c 0,0 -4.0221,-17.03392 -16.91179,-16.72388 -13.23791,0.31842 -19.58488,15.53865 -19.82439,21.4216 -0.28029,6.88444 -0.10732,52.87477 -0.10732,52.87477 H 503 Z"
       id="path9"
       sodipodi:nodetypes="cccsssscccsscccssccc"
       inkscape:label="M" />
    <rect
       style="fill:#000000;stroke-width:1.34041"
       id="rect5"
       width="22.986931"
       height="142.01968"
       x="443.0148"
       y="139.00165"
       inkscape:label="L" />
  </g>
  <g
     inkscape:groupmode="layer"
     id="layer2"
     inkscape:label="Icon">
    <path
       style="display:inline;fill:#000000;stroke-width:1.15276"
       id="rect1"
       width="327.01801"
       height="327.96707"
       x="84.044434"
       y="54.067364"
       inkscape:path-effect="#path-effect1"
       sodipodi:type="rect"
       d="M 98.544434,54.067364 H 396.56244 c 8.033,0 14.5,6.467 14.5,14.5 V 367.53444 c 0,8.033 -6.467,14.5 -14.5,14.5 H 98.544434 c -8.033,0 -14.5,-6.467 -14.5,-14.5 V 68.567364 c 0,-8.033 6.467,-14.5 14.5,-14.5 z"
       rx="14.5"
       inkscape:label="Background" />
    <circle
       style="fill:#ffffff;stroke-width:1.34626"
       id="path3"
       cx="133.71124"
       cy="220.21089"
       r="30.896221" />
    <rect
       style="fill:#ffffff;stroke-width:2.06076"
       id="rect4"
       width="162.91919"
       height="19.018591"
       x="248.07884"
       y="327.00623" />
    <rect
       style="fill:#ffffff;stroke-width:2.06618"
       id="rect4-3"
       width="163.3459"
       height="19.068657"
       x="256.33737"
       y="47.636936"
       transform="matrix(0.70284642,0.71134162,-0.70211215,0.71206638,0,0)" />
    <g
       inkscape:groupmode="layer"
       id="layer4"
       inkscape:label="E">
      <rect
         style="fill:#ffffff;stroke-width:1.14336"
         id="rect2"
         width="112.13498"
         height="27.015427"
         x="257.86325"
         y="111.98186" />
      <rect
         style="fill:#ffffff;stroke-width:1.10584"
         id="rect2-3"
         width="108.95171"
         height="26.009727"
         x="257.07101"
         y="182.01297" />
      <rect
         style="fill:#ffffff;stroke-width:1.19295"
         id="rect2-1"
         width="118.66165"
         height="27.792282"
         x="256.42538"
         y="256.15204" />
      <rect
         style="fill:#ffffff;stroke-width:12.0857"
         id="rect3"
         width="31.020054"
         height="171.93666"
         x="256.01157"
         y="112.00869" />
    </g>
  </g>
</svg>
