<?xml version="1.0" encoding="UTF-8" standalone="no"?>
<!-- Uploaded to: SVG Repo, www.svgrepo.com, Generator: SVG Repo Mixer Tools -->

<svg
   fill="#000000"
   width="800px"
   height="800px"
   viewBox="0 0 24 24"
   data-name="Layer 1"
   version="1.1"
   id="svg1"
   sodipodi:docname="hwbot.svg"
   inkscape:version="1.3.2 (091e20ef0f, 2023-11-25)"
   xmlns:inkscape="http://www.inkscape.org/namespaces/inkscape"
   xmlns:sodipodi="http://sodipodi.sourceforge.net/DTD/sodipodi-0.dtd"
   xmlns="http://www.w3.org/2000/svg"
   xmlns:svg="http://www.w3.org/2000/svg">
  <defs
     id="defs1" />
  <sodipodi:namedview
     id="namedview1"
     pagecolor="#505050"
     bordercolor="#eeeeee"
     borderopacity="1"
     inkscape:showpageshadow="0"
     inkscape:pageopacity="0"
     inkscape:pagecheckerboard="0"
     inkscape:deskcolor="#d1d1d1"
     showgrid="false"
     inkscape:zoom="0.915"
     inkscape:cx="400"
     inkscape:cy="400"
     inkscape:window-width="1454"
     inkscape:window-height="987"
     inkscape:window-x="0"
     inkscape:window-y="0"
     inkscape:window-maximized="1"
     inkscape:current-layer="svg1" />
  <path
     d="M9,15a1,1,0,1,0,1,1A1,1,0,0,0,9,15ZM2,14a1,1,0,0,0-1,1v2a1,1,0,0,0,2,0V15A1,1,0,0,0,2,14Zm20,0a1,1,0,0,0-1,1v2a1,1,0,0,0,2,0V15A1,1,0,0,0,22,14ZM17,7H13V5.72A2,2,0,0,0,14,4a2,2,0,0,0-4,0,2,2,0,0,0,1,1.72V7H7a3,3,0,0,0-3,3v9a3,3,0,0,0,3,3H17a3,3,0,0,0,3-3V10A3,3,0,0,0,17,7ZM13.72,9l-.5,2H10.78l-.5-2ZM18,19a1,1,0,0,1-1,1H7a1,1,0,0,1-1-1V10A1,1,0,0,1,7,9H8.22L9,12.24A1,1,0,0,0,10,13h4a1,1,0,0,0,1-.76L15.78,9H17a1,1,0,0,1,1,1Zm-3-4a1,1,0,1,0,1,1A1,1,0,0,0,15,15Z"
     id="path1"
     style="fill:#b3b3b3" />
</svg>
